<svg width="18" height="18" viewBox="0 0 18 18" fill="none" xmlns="http://www.w3.org/2000/svg">
<path fill-rule="evenodd" clip-rule="evenodd" d="M17.2488 10.4962C17.4562 10.4977 17.6539 10.5845 17.7954 10.7362C17.9374 10.8849 18.011 11.086 17.9987 11.2912C17.7733 15.0565 14.6542 17.9949 10.882 17.9953H7.11751C3.34538 17.9949 0.226231 15.0565 0.000886998 11.2912C-0.00899282 11.0865 0.0639912 10.8864 0.203362 10.7362C0.34388 10.5827 0.542658 10.4955 0.750794 10.4962H3.46396C3.6293 10.4978 3.77615 10.3909 3.82542 10.233C4.02126 9.61028 4.59743 9.18574 5.25024 9.18316H9.00353C9.65634 9.18574 10.2325 9.61028 10.4284 10.233C10.4772 10.3895 10.6221 10.4962 10.7861 10.4962H14.8108C15.0179 10.4962 15.1858 10.3284 15.1858 10.1213V2.24727C15.1866 1.95091 15.0128 1.68186 14.7424 1.56073C14.4719 1.4396 14.1555 1.48912 13.9349 1.68709L13.6275 1.99455C13.5274 2.09531 13.4929 2.24394 13.5382 2.3785C13.7997 3.15082 13.6013 4.00461 13.026 4.58248L12.876 4.73621C12.5832 5.02896 12.1085 5.02896 11.8157 4.73621L9.83217 2.75195C9.53942 2.45912 9.53942 1.98442 9.83217 1.69159L9.9859 1.53785C10.5706 0.979258 11.4149 0.786851 12.1839 1.03692C12.3174 1.07935 12.4635 1.04378 12.5626 0.944678L12.9098 0.59747C13.5659 -0.00881285 14.5186 -0.169444 15.3372 0.188182C16.1559 0.545807 16.6853 1.35392 16.6863 2.24727V10.1213C16.6863 10.3284 16.8542 10.4962 17.0613 10.4962H17.2488ZM8.62488 15.1832C8.83196 15.1832 8.99983 15.0153 8.99983 14.8083V11.0587C8.99983 10.8516 8.83196 10.6838 8.62488 10.6838H5.62525C5.41817 10.6838 5.2503 10.8516 5.2503 11.0587V14.8083C5.2503 15.0153 5.41817 15.1832 5.62525 15.1832H8.62488Z" fill="black"/>
<path d="M6.75013 4.56302C6.85841 4.56396 6.9656 4.54145 7.06434 4.49703L8.42618 3.8686C8.66985 3.75675 8.83533 3.52339 8.8603 3.25644C8.88526 2.98949 8.76591 2.7295 8.54721 2.5744C8.32851 2.4193 8.04367 2.39267 7.8 2.50452L6.43592 3.13219C6.11613 3.27975 5.94211 3.62996 6.01766 3.97396C6.0932 4.31795 6.39794 4.56303 6.75013 4.56302Z" fill="black"/>
<path d="M10.5911 8.62834C10.9719 8.7908 11.4124 8.61389 11.575 8.23314L12.1644 6.85331C12.3164 6.47483 12.1381 6.04425 11.763 5.88412C11.3878 5.72399 10.9535 5.89304 10.7853 6.26463L10.1997 7.64671C10.0383 8.0259 10.2131 8.46428 10.5911 8.62834Z" fill="black"/>
<path d="M7.86446 6.80391C8.15584 7.09812 8.63054 7.10047 8.92483 6.80916L9.9912 5.75479C10.2775 5.46223 10.2763 4.99411 9.9885 4.70302C9.70069 4.41192 9.23261 4.40543 8.93683 4.68842L7.87046 5.74354C7.57604 6.03472 7.57336 6.50942 7.86446 6.80391Z" fill="black"/>
</svg>
