<svg width="18" height="18" viewBox="0 0 18 18" fill="none" xmlns="http://www.w3.org/2000/svg">
<path d="M5.24998 3.37499C5.6642 3.37499 5.99998 3.03921 5.99998 2.625V0.749999C5.99998 0.335786 5.6642 0 5.24998 0C4.83577 0 4.49998 0.335786 4.49998 0.749999V2.625C4.49998 3.03921 4.83577 3.37499 5.24998 3.37499Z" fill="black"/>
<path d="M3.37499 5.24993C3.37499 4.83572 3.03921 4.49994 2.625 4.49994H0.749999C0.335786 4.49994 0 4.83572 0 5.24993C0 5.66415 0.335786 5.99993 0.749999 5.99993H2.625C3.03921 5.99993 3.37499 5.66415 3.37499 5.24993Z" fill="black"/>
<path d="M2.625 12.0001H0.749999C0.335786 12.0001 0 12.3359 0 12.7501C0 13.1643 0.335786 13.5001 0.749999 13.5001H2.625C3.03921 13.5001 3.37499 13.1643 3.37499 12.7501C3.37499 12.3359 3.03921 12.0001 2.625 12.0001Z" fill="black"/>
<path d="M12.75 0C12.3358 0 12 0.335786 12 0.749999V2.625C12 3.03921 12.3358 3.37499 12.75 3.37499C13.1642 3.37499 13.5 3.03921 13.5 2.625V0.749999C13.5 0.335786 13.1642 0 12.75 0Z" fill="black"/>
<path d="M5.24998 14.625C4.83577 14.625 4.49998 14.9608 4.49998 15.375V17.25C4.49998 17.6642 4.83577 18 5.24998 18C5.6642 18 5.99998 17.6642 5.99998 17.25V15.375C5.99998 14.9608 5.6642 14.625 5.24998 14.625Z" fill="black"/>
<path d="M12.75 14.625C12.3358 14.625 12 14.9608 12 15.375V17.25C12 17.6642 12.3358 18 12.75 18C13.1642 18 13.5 17.6642 13.5 17.25V15.375C13.5 14.9608 13.1642 14.625 12.75 14.625Z" fill="black"/>
<path d="M15.375 5.99993H17.25C17.6642 5.99993 18 5.66415 18 5.24993C18 4.83572 17.6642 4.49994 17.25 4.49994H15.375C14.9608 4.49994 14.625 4.83572 14.625 5.24993C14.625 5.66415 14.9608 5.99993 15.375 5.99993Z" fill="black"/>
<path d="M17.25 12.0001H15.375C14.9608 12.0001 14.625 12.3359 14.625 12.7501C14.625 13.1643 14.9608 13.5001 15.375 13.5001H17.25C17.6642 13.5001 18 13.1643 18 12.7501C18 12.3359 17.6642 12.0001 17.25 12.0001Z" fill="black"/>
<path fill-rule="evenodd" clip-rule="evenodd" d="M12.75 4.49994C13.1642 4.49994 13.5 4.83572 13.5 5.24993V12.7499C13.5 13.1641 13.1642 13.4999 12.75 13.4999H5.24998C4.83577 13.4999 4.49998 13.1641 4.49998 12.7499V5.24993C4.49998 4.83572 4.83577 4.49994 5.24998 4.49994H12.75ZM11.6249 11.9998C11.832 11.9998 11.9999 11.8319 11.9999 11.6248V6.37483C11.9999 6.16772 11.832 5.99983 11.6249 5.99983H6.37494C6.16783 5.99983 5.99994 6.16772 5.99994 6.37483V11.6248C5.99994 11.8319 6.16783 11.9998 6.37494 11.9998H11.6249Z" fill="black"/>
</svg>
