<svg width="60" height="58" viewBox="0 0 60 58" fill="none" xmlns="http://www.w3.org/2000/svg">
<g clip-path="url(#clip0_2_60)">
<path d="M0.56811 0.499996H54.0686C56.5539 0.499996 58.5686 2.5147 58.5686 4.99996V53C58.5686 55.4853 56.5539 57.5 54.0686 57.5H0.56811V0.499996Z" fill="#23A6F0"/>
<path fill-rule="evenodd" clip-rule="evenodd" d="M33.1058 31.3185L37.4095 35.6223C37.5608 35.7736 37.6458 35.9789 37.6457 36.1929C37.6456 36.4069 37.5605 36.6121 37.4091 36.7634C37.2578 36.9147 37.0525 36.9996 36.8385 36.9995C36.6245 36.9995 36.4193 36.9144 36.268 36.763L31.9642 32.4592C30.6777 33.4557 29.0598 33.9247 27.4398 33.7706C25.8198 33.6166 24.3192 32.8512 23.2435 31.6302C22.1678 30.4091 21.5976 28.8241 21.649 27.1976C21.7004 25.571 22.3695 24.0252 23.5202 22.8745C24.6709 21.7238 26.2168 21.0547 27.8433 21.0033C29.4698 20.9519 31.0548 21.522 32.2759 22.5978C33.497 23.6735 34.2624 25.174 34.4164 26.794C34.5704 28.4141 34.1015 30.0319 33.105 31.3185H33.1058ZM28.0461 32.1992C29.319 32.1992 30.5399 31.6936 31.44 30.7934C32.3401 29.8933 32.8458 28.6725 32.8458 27.3995C32.8458 26.1265 32.3401 24.9057 31.44 24.0056C30.5399 23.1055 29.319 22.5998 28.0461 22.5998C26.7731 22.5998 25.5523 23.1055 24.6521 24.0056C23.752 24.9057 23.2463 26.1265 23.2463 27.3995C23.2463 28.6725 23.752 29.8933 24.6521 30.7934C25.5523 31.6936 26.7731 32.1992 28.0461 32.1992Z" fill="white"/>
<path d="M0.56811 0.499996H54.0686C56.5539 0.499996 58.5686 2.5147 58.5686 4.99996V53C58.5686 55.4853 56.5539 57.5 54.0686 57.5H0.56811V0.499996Z" stroke="#E6E6E6"/>
</g>
<defs>
<clipPath id="clip0_2_60">
<rect width="59.3919" height="58.0004" fill="white"/>
</clipPath>
</defs>
</svg>
