<svg width="18" height="18" viewBox="0 0 18 18" fill="none" xmlns="http://www.w3.org/2000/svg">
<path fill-rule="evenodd" clip-rule="evenodd" d="M16.2364 12.2747L13.6912 11.9841C13.08 11.914 12.4788 12.1244 12.0479 12.5553L10.2042 14.399C7.3685 12.9561 5.04382 10.6414 3.60092 7.79569L5.45465 5.94196C5.88552 5.51109 6.09594 4.90988 6.0258 4.29865L5.73522 1.77357C5.61497 0.761533 4.76326 0 3.7412 0H2.00771C0.875436 0 -0.0664603 0.941896 0.00368089 2.07417C0.53475 10.6314 7.37852 17.4652 15.9257 17.9962C17.058 18.0664 17.9999 17.1245 17.9999 15.9922V14.2587C18.0099 13.2467 17.2484 12.3949 16.2364 12.2747Z" fill="#F4511E"/>
</svg>
