<svg width="15" height="12" viewBox="0 0 15 12" fill="none" xmlns="http://www.w3.org/2000/svg">
<path d="M6.47752 1.53375H8.52252C9.46885 1.53461 10.2905 2.18577 10.5075 3.10688C10.5257 3.18366 10.5942 3.23794 10.6731 3.23813H13.8069C13.8521 3.23829 13.8955 3.22045 13.9275 3.18856C13.9595 3.15666 13.9775 3.11332 13.9775 3.06813V1.36313C13.9775 1.00149 13.8338 0.654683 13.5781 0.399029C13.3223 0.143376 12.9754 -0.000165666 12.6138 1.4349e-07H2.38627C2.02464 -0.000165666 1.67776 0.143376 1.42199 0.399029C1.16622 0.654683 1.02252 1.00149 1.02252 1.36313V3.06813C1.02252 3.11332 1.04052 3.15666 1.07253 3.18856C1.10455 3.22045 1.14795 3.23829 1.19315 3.23813H4.3269C4.40598 3.2384 4.47472 3.18393 4.49252 3.10688C4.70955 2.18577 5.5312 1.53461 6.47752 1.53375Z" fill="black"/>
<path d="M0.681875 4.26121C0.50098 4.26105 0.327446 4.33283 0.199534 4.46075C0.0716211 4.58866 -0.000165748 4.76219 2.87376e-07 4.94309V8.52246C-2.68357e-07 8.84653 0.228091 9.12583 0.545625 9.19059C0.624856 9.20689 0.681756 9.27657 0.681875 9.35746V10.7381C0.681875 11.1147 0.987161 11.42 1.36375 11.42C1.74034 11.42 2.04563 11.1147 2.04563 10.7381V9.37496C2.04546 9.32977 2.0633 9.28637 2.0952 9.25435C2.12709 9.22233 2.17043 9.20434 2.21563 9.20434H12.7844C12.8296 9.20434 12.8729 9.22233 12.9048 9.25435C12.9367 9.28637 12.9545 9.32977 12.9544 9.37496V10.7381C12.9544 11.1147 13.2597 11.42 13.6363 11.42C14.0128 11.42 14.3181 11.1147 14.3181 10.7381V9.35746C14.3182 9.27657 14.3751 9.20689 14.4544 9.19059C14.7719 9.12583 15 8.84653 15 8.52246V4.94309C15.0002 4.76219 14.9284 4.58866 14.8005 4.46075C14.6726 4.33283 14.499 4.26105 14.3181 4.26121H0.681875Z" fill="black"/>
</svg>
