<svg width="45" height="45" viewBox="0 0 45 45" fill="none" xmlns="http://www.w3.org/2000/svg">
<g clip-path="url(#clip0_2_81)">
<path d="M22.5 41.25C12.1444 41.25 3.75002 32.8556 3.75002 22.5C3.75002 12.1444 12.1444 3.75 22.5 3.75C32.8556 3.75 41.25 12.1444 41.25 22.5C41.25 32.8556 32.8556 41.25 22.5 41.25ZM22.5 37.5C26.4783 37.5 30.2936 35.9196 33.1066 33.1066C35.9197 30.2936 37.5 26.4782 37.5 22.5C37.5 18.5218 35.9197 14.7064 33.1066 11.8934C30.2936 9.08035 26.4783 7.5 22.5 7.5C18.5218 7.5 14.7065 9.08035 11.8934 11.8934C9.08037 14.7064 7.50001 18.5218 7.50001 22.5C7.50001 26.4782 9.08037 30.2936 11.8934 33.1066C14.7065 35.9196 18.5218 37.5 22.5 37.5ZM15.9375 26.25H26.25C26.4987 26.25 26.7371 26.1512 26.9129 25.9754C27.0887 25.7996 27.1875 25.5611 27.1875 25.3125C27.1875 25.0639 27.0887 24.8254 26.9129 24.6496C26.7371 24.4738 26.4987 24.375 26.25 24.375H18.75C17.5068 24.375 16.3145 23.8811 15.4355 23.0021C14.5564 22.123 14.0625 20.9307 14.0625 19.6875C14.0625 18.4443 14.5564 17.252 15.4355 16.3729C16.3145 15.4939 17.5068 15 18.75 15H20.625V11.25H24.375V15H29.0625V18.75H18.75C18.5014 18.75 18.2629 18.8488 18.0871 19.0246C17.9113 19.2004 17.8125 19.4389 17.8125 19.6875C17.8125 19.9361 17.9113 20.1746 18.0871 20.3504C18.2629 20.5262 18.5014 20.625 18.75 20.625H26.25C27.4932 20.625 28.6855 21.1189 29.5646 21.9979C30.4437 22.877 30.9375 24.0693 30.9375 25.3125C30.9375 26.5557 30.4437 27.748 29.5646 28.6271C28.6855 29.5061 27.4932 30 26.25 30H24.375V33.75H20.625V30H15.9375V26.25Z" fill="#F4511E"/>
</g>
<defs>
<clipPath id="clip0_2_81">
<rect width="45" height="45" fill="white"/>
</clipPath>
</defs>
</svg>
